<?xml version="1.0" encoding="UTF-8"?>
<svg width="100%" height="100%" preserveAspectRatio="none" viewBox="0 0 171 13" version="1.1" xmlns="http://www.w3.org/2000/svg" xmlns:xlink="http://www.w3.org/1999/xlink">
    <!-- Generator: Sketch 39.1 (31720) - http://www.bohemiancoding.com/sketch -->
    <title>POINTER3000</title>
    <desc>Created with Sketch.</desc>
    <defs></defs>
    <g id="Page-1" stroke="none" stroke-width="1" fill="none" fill-rule="evenodd">
        <path d="M9.84,8.24 C14.096,8.24 15.392,6.464 15.392,4.336 L15.392,4.176 C15.392,2 14.128,0.304 9.84,0.304 L0.912,0.304 L0.912,12.208 L4.64,12.208 L4.64,8.24 L9.84,8.24 Z M4.64,3.008 L9.776,3.008 C10.976,3.008 11.504,3.456 11.504,4.272 L11.504,4.32 C11.504,5.136 10.944,5.568 9.776,5.568 L4.64,5.568 L4.64,3.008 Z M24.528,0.096 C16.992,0.096 16.144,3.856 16.144,5.984 L16.144,6.464 C16.144,8.56 16.992,12.416 24.528,12.416 L25.216,12.416 C32.72,12.416 33.584,8.56 33.584,6.464 L33.584,5.984 C33.584,3.856 32.704,0.096 25.216,0.096 L24.528,0.096 Z M29.68,6.32 C29.68,7.696 28.864,9.52 24.864,9.52 C20.832,9.52 20.048,7.648 20.048,6.288 L20.048,6.096 C20.048,4.736 20.768,2.976 24.864,2.976 C28.896,2.976 29.68,4.736 29.68,6.096 L29.68,6.32 Z M38.656,0.304 L34.928,0.304 L34.928,12.208 L38.656,12.208 L38.656,0.304 Z M40.48,0.304 L40.48,12.208 L44.16,12.208 L44.16,4.32 L52.24,12.208 L55.92,12.208 L55.92,0.304 L52.24,0.304 L52.24,7.792 L44.64,0.304 L40.48,0.304 Z M62.4,12.208 L66.16,12.208 L66.16,3.12 L71.296,3.12 L71.296,0.304 L57.28,0.304 L57.28,3.12 L62.4,3.12 L62.4,12.208 Z M72.656,0.304 L72.656,12.208 L85.36,12.208 L85.36,9.44 L76.336,9.44 L76.336,7.488 L84.992,7.488 L84.992,4.768 L76.336,4.768 L76.336,3.008 L85.2,3.008 L85.2,0.304 L72.656,0.304 Z M90.64,3.008 L96.288,3.008 C97.376,3.008 97.792,3.536 97.792,4.16 L97.792,4.176 C97.792,4.832 97.36,5.344 96.288,5.344 L90.64,5.344 L90.64,3.008 Z M90.64,7.984 L95.504,7.984 C97.344,7.984 97.984,8.624 97.984,10.08 L97.984,11.456 C97.984,11.888 98.048,12.064 98.16,12.208 L101.952,12.208 L101.952,12.128 C101.84,11.936 101.728,11.632 101.728,10.672 L101.728,8.928 C101.728,7.392 100.688,6.544 99.472,6.192 C100.256,5.936 101.68,5.296 101.68,3.584 L101.68,3.392 C101.68,1.68 100.48,0.304 96.512,0.304 L86.912,0.304 L86.912,12.208 L90.64,12.208 L90.64,7.984 Z M110.384,12.416 C116.256,12.416 117.52,10.352 117.52,8.352 L117.52,8.24 C117.52,6.4 116.192,5.584 115.248,5.328 C116.016,5.152 117.152,4.512 117.152,3.264 L117.152,3.168 C117.152,1.888 116.416,0.096 110.048,0.096 L109.376,0.096 C103.056,0.096 102.576,2.928 102.576,4.016 L102.576,4.176 L106.464,4.176 C106.512,3.92 106.544,2.816 109.728,2.816 C112.992,2.816 113.248,3.424 113.248,3.856 C113.248,4.256 113.024,4.64 111.696,4.64 L107.68,4.64 L107.68,7.408 L111.888,7.408 C113.296,7.408 113.552,7.872 113.552,8.336 C113.552,8.816 113.36,9.664 109.968,9.664 C106.688,9.664 106.512,8.16 106.464,7.856 L102.544,7.856 L102.544,7.984 C102.544,9.2 103.152,12.416 109.632,12.416 L110.384,12.416 Z M135.04,5.984 C135.04,3.872 134.064,0.096 127.008,0.096 L126.304,0.096 C119.264,0.096 118.272,3.872 118.272,5.984 L118.272,6.464 C118.272,8.56 119.264,12.416 126.304,12.416 L127.008,12.416 C134.08,12.416 135.04,8.544 135.04,6.464 L135.04,5.984 Z M131.136,6.32 C131.136,7.68 130.288,9.504 126.656,9.504 C123.024,9.504 122.176,7.632 122.176,6.288 L122.176,6.096 C122.176,4.752 122.944,2.992 126.656,2.992 C130.304,2.992 131.136,4.752 131.136,6.096 L131.136,6.32 Z M152.672,5.984 C152.672,3.872 151.696,0.096 144.64,0.096 L143.936,0.096 C136.896,0.096 135.904,3.872 135.904,5.984 L135.904,6.464 C135.904,8.56 136.896,12.416 143.936,12.416 L144.64,12.416 C151.712,12.416 152.672,8.544 152.672,6.464 L152.672,5.984 Z M148.768,6.32 C148.768,7.68 147.92,9.504 144.288,9.504 C140.656,9.504 139.808,7.632 139.808,6.288 L139.808,6.096 C139.808,4.752 140.576,2.992 144.288,2.992 C147.936,2.992 148.768,4.752 148.768,6.096 L148.768,6.32 Z M170.304,5.984 C170.304,3.872 169.328,0.096 162.272,0.096 L161.568,0.096 C154.528,0.096 153.536,3.872 153.536,5.984 L153.536,6.464 C153.536,8.56 154.528,12.416 161.568,12.416 L162.272,12.416 C169.344,12.416 170.304,8.544 170.304,6.464 L170.304,5.984 Z M166.4,6.32 C166.4,7.68 165.552,9.504 161.92,9.504 C158.288,9.504 157.44,7.632 157.44,6.288 L157.44,6.096 C157.44,4.752 158.208,2.992 161.92,2.992 C165.568,2.992 166.4,4.752 166.4,6.096 L166.4,6.32 Z" id="POINTER3000" fill="#FFFFFF"></path>
    </g>
</svg>