<?xml version="1.0" encoding="UTF-8"?>
<svg width="100%" height="100%" preserveAspectRatio="none" viewBox="0 0 303 14" version="1.1" xmlns="http://www.w3.org/2000/svg" xmlns:xlink="http://www.w3.org/1999/xlink">
    <!-- Generator: Sketch 39.1 (31720) - http://www.bohemiancoding.com/sketch -->
    <title>POINTERGEOMETRY3000</title>
    <desc>Created with Sketch.</desc>
    <defs></defs>
    <g id="Page-1" stroke="none" stroke-width="1" fill="none" fill-rule="evenodd">
        <path d="M9.84,9.032 C14.096,9.032 15.392,7.256 15.392,5.128 L15.392,4.968 C15.392,2.792 14.128,1.096 9.84,1.096 L0.912,1.096 L0.912,13 L4.64,13 L4.64,9.032 L9.84,9.032 Z M4.64,3.8 L9.776,3.8 C10.976,3.8 11.504,4.248 11.504,5.064 L11.504,5.112 C11.504,5.928 10.944,6.36 9.776,6.36 L4.64,6.36 L4.64,3.8 Z M24.528,0.888 C16.992,0.888 16.144,4.648 16.144,6.776 L16.144,7.256 C16.144,9.352 16.992,13.208 24.528,13.208 L25.216,13.208 C32.72,13.208 33.584,9.352 33.584,7.256 L33.584,6.776 C33.584,4.648 32.704,0.888 25.216,0.888 L24.528,0.888 Z M29.68,7.112 C29.68,8.488 28.864,10.312 24.864,10.312 C20.832,10.312 20.048,8.44 20.048,7.08 L20.048,6.888 C20.048,5.528 20.768,3.768 24.864,3.768 C28.896,3.768 29.68,5.528 29.68,6.888 L29.68,7.112 Z M38.656,1.096 L34.928,1.096 L34.928,13 L38.656,13 L38.656,1.096 Z M40.48,1.096 L40.48,13 L44.16,13 L44.16,5.112 L52.24,13 L55.92,13 L55.92,1.096 L52.24,1.096 L52.24,8.584 L44.64,1.096 L40.48,1.096 Z M62.4,13 L66.16,13 L66.16,3.912 L71.296,3.912 L71.296,1.096 L57.28,1.096 L57.28,3.912 L62.4,3.912 L62.4,13 Z M72.656,1.096 L72.656,13 L85.36,13 L85.36,10.232 L76.336,10.232 L76.336,8.28 L84.992,8.28 L84.992,5.56 L76.336,5.56 L76.336,3.8 L85.2,3.8 L85.2,1.096 L72.656,1.096 Z M90.64,3.8 L96.288,3.8 C97.376,3.8 97.792,4.328 97.792,4.952 L97.792,4.968 C97.792,5.624 97.36,6.136 96.288,6.136 L90.64,6.136 L90.64,3.8 Z M90.64,8.776 L95.504,8.776 C97.344,8.776 97.984,9.416 97.984,10.872 L97.984,12.248 C97.984,12.68 98.048,12.856 98.16,13 L101.952,13 L101.952,12.92 C101.84,12.728 101.728,12.424 101.728,11.464 L101.728,9.72 C101.728,8.184 100.688,7.336 99.472,6.984 C100.256,6.728 101.68,6.088 101.68,4.376 L101.68,4.184 C101.68,2.472 100.48,1.096 96.512,1.096 L86.912,1.096 L86.912,13 L90.64,13 L90.64,8.776 Z M110.992,13.208 C114.672,13.208 116.208,11.736 116.72,11.144 C116.928,11.64 117.152,12.568 117.2,13 L119.44,13 L119.44,6.328 L111.056,6.328 L111.056,8.584 L115.728,8.584 L115.728,8.616 C115.728,8.952 114.656,10.312 111.12,10.312 C107.84,10.312 106.624,8.664 106.624,7.112 L106.624,6.936 C106.624,5.288 107.52,3.72 111.152,3.72 C114.864,3.72 115.296,5.144 115.392,5.416 L119.36,5.416 L119.36,5.4 C119.296,3.784 118.128,0.888 111.472,0.888 L110.784,0.888 C103.936,0.888 102.72,4.456 102.72,6.776 L102.72,7.224 C102.72,9.608 104.208,13.208 110.656,13.208 L110.992,13.208 Z M121.136,1.096 L121.136,13 L133.84,13 L133.84,10.232 L124.816,10.232 L124.816,8.28 L133.472,8.28 L133.472,5.56 L124.816,5.56 L124.816,3.8 L133.68,3.8 L133.68,1.096 L121.136,1.096 Z M143.296,0.888 C135.76,0.888 134.912,4.648 134.912,6.776 L134.912,7.256 C134.912,9.352 135.76,13.208 143.296,13.208 L143.984,13.208 C151.488,13.208 152.352,9.352 152.352,7.256 L152.352,6.776 C152.352,4.648 151.472,0.888 143.984,0.888 L143.296,0.888 Z M148.448,7.112 C148.448,8.488 147.632,10.312 143.632,10.312 C139.6,10.312 138.816,8.44 138.816,7.08 L138.816,6.888 C138.816,5.528 139.536,3.768 143.632,3.768 C147.664,3.768 148.448,5.528 148.448,6.888 L148.448,7.112 Z M153.696,13 L157.28,13 L157.28,4.76 L161.968,13 L163.968,13 L168.656,4.76 L168.656,13 L172.336,13 L172.336,1.096 L167.232,1.096 L163.104,8.504 L158.992,1.096 L153.696,1.096 L153.696,13 Z M174.16,1.096 L174.16,13 L186.864,13 L186.864,10.232 L177.84,10.232 L177.84,8.28 L186.496,8.28 L186.496,5.56 L177.84,5.56 L177.84,3.8 L186.704,3.8 L186.704,1.096 L174.16,1.096 Z M193.072,13 L196.832,13 L196.832,3.912 L201.968,3.912 L201.968,1.096 L187.952,1.096 L187.952,3.912 L193.072,3.912 L193.072,13 Z M207.056,3.8 L212.704,3.8 C213.792,3.8 214.208,4.328 214.208,4.952 L214.208,4.968 C214.208,5.624 213.776,6.136 212.704,6.136 L207.056,6.136 L207.056,3.8 Z M207.056,8.776 L211.92,8.776 C213.76,8.776 214.4,9.416 214.4,10.872 L214.4,12.248 C214.4,12.68 214.464,12.856 214.576,13 L218.368,13 L218.368,12.92 C218.256,12.728 218.144,12.424 218.144,11.464 L218.144,9.72 C218.144,8.184 217.104,7.336 215.888,6.984 C216.672,6.728 218.096,6.088 218.096,4.376 L218.096,4.184 C218.096,2.472 216.896,1.096 212.928,1.096 L203.328,1.096 L203.328,13 L207.056,13 L207.056,8.776 Z M224.72,13 L228.448,13 L228.448,8.392 L234.64,1.096 L230.432,1.096 L226.672,5.48 L222.976,1.096 L218.352,1.096 L224.72,8.392 L224.72,13 Z M242.384,13.208 C248.256,13.208 249.52,11.144 249.52,9.144 L249.52,9.032 C249.52,7.192 248.192,6.376 247.248,6.12 C248.016,5.944 249.152,5.304 249.152,4.056 L249.152,3.96 C249.152,2.68 248.416,0.888 242.048,0.888 L241.376,0.888 C235.056,0.888 234.576,3.72 234.576,4.808 L234.576,4.968 L238.464,4.968 C238.512,4.712 238.544,3.608 241.728,3.608 C244.992,3.608 245.248,4.216 245.248,4.648 C245.248,5.048 245.024,5.432 243.696,5.432 L239.68,5.432 L239.68,8.2 L243.888,8.2 C245.296,8.2 245.552,8.664 245.552,9.128 C245.552,9.608 245.36,10.456 241.968,10.456 C238.688,10.456 238.512,8.952 238.464,8.648 L234.544,8.648 L234.544,8.776 C234.544,9.992 235.152,13.208 241.632,13.208 L242.384,13.208 Z M267.04,6.776 C267.04,4.664 266.064,0.888 259.008,0.888 L258.304,0.888 C251.264,0.888 250.272,4.664 250.272,6.776 L250.272,7.256 C250.272,9.352 251.264,13.208 258.304,13.208 L259.008,13.208 C266.08,13.208 267.04,9.336 267.04,7.256 L267.04,6.776 Z M263.136,7.112 C263.136,8.472 262.288,10.296 258.656,10.296 C255.024,10.296 254.176,8.424 254.176,7.08 L254.176,6.888 C254.176,5.544 254.944,3.784 258.656,3.784 C262.304,3.784 263.136,5.544 263.136,6.888 L263.136,7.112 Z M284.672,6.776 C284.672,4.664 283.696,0.888 276.64,0.888 L275.936,0.888 C268.896,0.888 267.904,4.664 267.904,6.776 L267.904,7.256 C267.904,9.352 268.896,13.208 275.936,13.208 L276.64,13.208 C283.712,13.208 284.672,9.336 284.672,7.256 L284.672,6.776 Z M280.768,7.112 C280.768,8.472 279.92,10.296 276.288,10.296 C272.656,10.296 271.808,8.424 271.808,7.08 L271.808,6.888 C271.808,5.544 272.576,3.784 276.288,3.784 C279.936,3.784 280.768,5.544 280.768,6.888 L280.768,7.112 Z M302.304,6.776 C302.304,4.664 301.328,0.888 294.272,0.888 L293.568,0.888 C286.528,0.888 285.536,4.664 285.536,6.776 L285.536,7.256 C285.536,9.352 286.528,13.208 293.568,13.208 L294.272,13.208 C301.344,13.208 302.304,9.336 302.304,7.256 L302.304,6.776 Z M298.4,7.112 C298.4,8.472 297.552,10.296 293.92,10.296 C290.288,10.296 289.44,8.424 289.44,7.08 L289.44,6.888 C289.44,5.544 290.208,3.784 293.92,3.784 C297.568,3.784 298.4,5.544 298.4,6.888 L298.4,7.112 Z" id="POINTERGEOMETRY3000" fill="#FFFFFF"></path>
    </g>
</svg>